<svg xmlns="http://www.w3.org/2000/svg" viewBox="0 0 22.04 39.5" width="100%">
  <g>
    <path d="M7.77,39.47H6.84v0L2.19,34.11v5.36h-1V32.33h.89l4.68,5.39v-5.4h1Z" />
    <path d="M12.27,39.5H12l0,0L8.91,32.33H10v0l2.08,4.85,2.08-4.88h1.1Z" />
    <path d="M20.75,39.46H16.57V32.33h4.09v1h-3v2.06h2.88v1H17.67v2.1h3.08Z" />
    <path
      d="M10,2.66a1,1,0,0,0,1,1h.05a1,1,0,0,0,1-1,1,1,0,0,0-.81-1V1h.63V.59h-.63V0h-.47V.59h-.63V1h.63v.66a1,1,0,0,0-.81,1" />
    <path
      d="M11.05,10.44a39.35,39.35,0,0,1,5.82.37L18,6.22a.87.87,0,0,0-1,.44,1,1,0,0,0,.14.78.89.89,0,0,0-.63-.33c-.24,0-.46.31-.56.68s0,.69.26.69a1.3,1.3,0,0,0,.7-.32c0,.15-.29,1.2-.83,1.2l-.86-.1c-.55,0-.77-1.1-.8-1.22a1.62,1.62,0,0,0,.67.33c.24,0,.49-.26.55-.64S15.56,7,15.32,7a1.51,1.51,0,0,0-.77.34,1.74,1.74,0,0,0,.5-.84c0-.26-.21-.47-.57-.47a.71.71,0,0,0-.72.47,1.29,1.29,0,0,0,.25.84c-.17-.17-.42-.47-.67-.47s-.49.39-.55.76.13.62.37.62A1.17,1.17,0,0,0,13.88,8v.07c-.08.23-.37,1-.85,1l-.86,0c-.51,0-.77-1-.83-1.2v0a1.22,1.22,0,0,0,.72.33c.25,0,.44-.31.44-.69s-.19-.68-.44-.68a1.23,1.23,0,0,0-.71.33,1.43,1.43,0,0,0,.37-.84c0-.25-.29-.46-.65-.46h0c-.35,0-.64.21-.64.46a1.43,1.43,0,0,0,.37.84,1.25,1.25,0,0,0-.72-.33c-.24,0-.44.31-.44.68s.2.69.44.69a1.22,1.22,0,0,0,.72-.33v0c-.06.19-.31,1.2-.83,1.2l-.86,0c-.48,0-.8-.82-.88-1.05V8a1.08,1.08,0,0,0,.7.2c.24,0,.45-.24.39-.62S9,6.85,8.74,6.85s-.49.28-.66.44a1.3,1.3,0,0,0,.24-.84A.71.71,0,0,0,7.6,6C7.24,6,7,6.2,7,6.45a1.77,1.77,0,0,0,.5.84A1.41,1.41,0,0,0,6.76,7c-.24,0-.39.36-.33.74s.31.67.55.67S7.65,8,7.65,8s-.22,1.24-.77,1.24L6,9.36c-.54,0-.79-1-.83-1.2a1.33,1.33,0,0,0,.71.32c.24,0,.37-.31.26-.69s-.33-.68-.57-.68A.89.89,0,0,0,5,7.44a1,1,0,0,0,.14-.78.79.79,0,0,0-.77-.47.85.85,0,0,0-.23,0l1.15,4.61a37.34,37.34,0,0,1,5.8-.39" />
    <path
      d="M16.71,4.22a6.67,6.67,0,0,0-1.61.08c-.3-.57-1.38-.6-1.72-.59A11.34,11.34,0,0,0,11,4.07a11.07,11.07,0,0,0-2.32-.36c-.34,0-1.42,0-1.72.61a6.69,6.69,0,0,0-1.61-.08c-.41,0-1.8.18-1.49,1.32L4,5.93A.88.88,0,0,1,4.7,6l-.09-.29a.47.47,0,0,1,.33-.62A5.73,5.73,0,0,1,7,5.05l.16.74a1,1,0,0,1,.8,0L7.77,5a.46.46,0,0,1,.44-.53,6.87,6.87,0,0,1,2.12.2s.22,0,.23.19,0,.83,0,.83a1,1,0,0,1,.46-.12.91.91,0,0,1,.43.11l0-.82c0-.15.22-.16.22-.16a7.41,7.41,0,0,1,2.14-.24c.52.1.44.52.44.52l-.19.83a1.07,1.07,0,0,1,.81,0L15.11,5a5.67,5.67,0,0,1,2,0,.47.47,0,0,1,.34.62l-.08.29a.93.93,0,0,1,.69,0l.1-.37c.31-1.14-1.08-1.31-1.49-1.32" />
    <path
      d="M14.22,25h.54a4.59,4.59,0,0,0,1.34-.23,3.78,3.78,0,0,1,.61-.14l.25.14a12.66,12.66,0,0,0,3.31,1.44A5.92,5.92,0,0,0,22,25.51h0a6.87,6.87,0,0,0-1.29-.75c-.1,0-.13,0-.19.11a1,1,0,0,1-.25.23s-.23.05-.2,0,0,0,0,0a.82.82,0,0,0,.11-.25h0a.86.86,0,0,0-.34-.1,3.15,3.15,0,0,1-1.34-.54,1.83,1.83,0,0,1-.77-.89c-.1-.21-.17-.36-.51-.35a.69.69,0,0,0-.4.1.62.62,0,0,1-.34.1.6.6,0,0,1-.4-.17.5.5,0,0,1-.15-.32,1.58,1.58,0,0,1,.1-.49,7.6,7.6,0,0,1,.36-.8c.06-.12.11-.21.14-.28a6.73,6.73,0,0,0,.5-1.61c.05-.25.07-.37.18-.37s.24.14.31.5A8.49,8.49,0,0,0,18,21a1.94,1.94,0,0,0,1.15,1.08h0a4.3,4.3,0,0,0,1.36.3,2,2,0,0,0,.09-.3c.12-.47.31-1.31.31-1.33v0h0c0-.09-.23-.12-.54-.17-.51-.07-1.25-.2-1.45-.68-.42-1-.81-1.43-1.58-1.43a.59.59,0,0,0-.45.2l0,0a4.86,4.86,0,0,0-4.54,0,4,4,0,0,1-3.21.09c0-.27.07-.54.09-.79a.16.16,0,0,1,.21-.14,4.32,4.32,0,0,0,1.13.16,5.07,5.07,0,0,0,1.92-.41,5.62,5.62,0,0,1,2.14-.55,3.71,3.71,0,0,1,.73.08l.17-.68a3.89,3.89,0,0,0-.9-.11A6.21,6.21,0,0,0,12.2,17a4.25,4.25,0,0,1-1.65.35,3.11,3.11,0,0,1-1.1-.19.24.24,0,0,1-.16-.23c0-.23,0-.45,0-.66a.17.17,0,0,1,.2-.17,3.85,3.85,0,0,0,1,.14,4.88,4.88,0,0,0,1.92-.41,5.62,5.62,0,0,1,2.14-.55,4.25,4.25,0,0,1,1.16.19l.17-.68a4.79,4.79,0,0,0-1.33-.21,6.35,6.35,0,0,0-2.41.6,4.29,4.29,0,0,1-1.65.36,3.16,3.16,0,0,1-1.12-.2.25.25,0,0,1-.16-.21c0-.26,0-.49-.06-.71a.13.13,0,0,1,.17-.15,4.07,4.07,0,0,0,1.23.19,5,5,0,0,0,2-.43,5.84,5.84,0,0,1,2.22-.56,4.55,4.55,0,0,1,1.4.26l.17-.69a5.26,5.26,0,0,0-1.57-.28,6.45,6.45,0,0,0-2.49.62,4.36,4.36,0,0,1-1.7.37,3.34,3.34,0,0,1-1.33-.27L9,13.38a6.1,6.1,0,0,0-.24-.91l.46-.56a19.21,19.21,0,0,0-5.51.83,8,8,0,0,0-1.37.57l.32,1.33a.09.09,0,0,0,.1.06L4,14.43a6,6,0,0,1,1.6.52c0,.08,0,.13-.11.22a7.2,7.2,0,0,0-1.13,2.26,9.12,9.12,0,0,0-.57,4,3.42,3.42,0,0,1-1,.33c-.42.09-.91.2-1.37.34h0c-.78.23-1.46.56-1.46,1a1.62,1.62,0,0,0,.56,1.21,6.52,6.52,0,0,0,1.63,1,20,20,0,0,0,2.27.95,2.31,2.31,0,0,0,.7.16A8.2,8.2,0,0,0,7,25.85H7a5,5,0,0,0-1.12-.72h0a.43.43,0,0,0-.28.15l-.14.11,0-.11a.64.64,0,0,1,0-.15s0-.07,0-.09H5.25l-.13.08a.64.64,0,0,1-.37.12c-.33,0-1-.23-2.29-1.31l-.06,0a.31.31,0,0,1,.2-.11h3a.71.71,0,0,0,.37-.16.41.41,0,0,1,.13-.08,2.2,2.2,0,0,0,1.26.37,25.3,25.3,0,0,0,3.86-.48.59.59,0,0,1,.52.36,1.58,1.58,0,0,0,.81.84,3.56,3.56,0,0,0,1.2.38,3.14,3.14,0,0,0,.51,0" />
  </g>
</svg>